<?xml version="1.0" encoding="UTF-8"?>
<svg width="357px" height="254px" viewBox="0 0 357 254" version="1.1" xmlns="http://www.w3.org/2000/svg" xmlns:xlink="http://www.w3.org/1999/xlink">
    <!-- Generator: Sketch 51.3 (57544) - http://www.bohemiancoding.com/sketch -->
    <title>Group</title>
    <desc>Created with Sketch.</desc>
    <defs></defs>
    <g id="Page-1" stroke="none" stroke-width="1" fill="none" fill-rule="evenodd">
        <g id="Group">
            <path d="M60.6745,11.857 L43.8735,11.857 L43.8735,40 L31.7895,40 L31.7895,11.857 L14.9355,11.857 L14.9355,2.158 L60.6745,2.158 L60.6745,11.857 Z M93.8145,34.011 L72.3495,34.011 L69.4875,40 L56.1315,40 L75.2645,2.158 L91.1115,2.158 L110.0855,40 L96.7295,40 L93.8145,34.011 Z M89.6275,25.266 L83.2145,12.122 L82.8965,12.122 L76.5895,25.266 L89.6275,25.266 Z M163.4185,40 L148.2075,40 L135.1695,22.987 L126.6895,29.824 L126.6895,40 L114.6055,40 L114.6055,2.158 L126.6895,2.158 L126.6895,17.528 L145.0805,2.158 L160.9805,2.158 L144.2855,15.62 L163.4185,40 Z M202.7065,34.011 L181.2415,34.011 L178.3795,40 L165.0235,40 L184.1565,2.158 L200.0035,2.158 L218.9775,40 L205.6215,40 L202.7065,34.011 Z M198.5195,25.266 L192.1065,12.122 L191.7885,12.122 L185.4815,25.266 L198.5195,25.266 Z M250.5805,10.0285 C248.990492,9.33949655 246.693848,8.995 243.6905,8.995 C240.687152,8.995 238.540673,9.28649709 237.251,9.8695 C235.961327,10.4525029 235.3165,11.3093277 235.3165,12.44 C235.3165,13.3586713 235.705163,14.0299979 236.4825,14.454 C237.259837,14.8780021 238.531824,15.1783324 240.2985,15.355 L255.3505,16.627 C259.802522,17.0156686 263.141489,18.1286575 265.3675,19.966 C267.593511,21.8033425 268.7065,24.5769815 268.7065,28.287 C268.7065,31.7143505 267.787843,34.364324 265.9505,36.237 C264.113157,38.109676 261.454351,39.408163 257.974,40.1325 C254.493649,40.856837 249.979861,41.219 244.4325,41.219 C239.09714,41.219 234.74235,40.8303372 231.368,40.053 C227.99365,39.2756628 225.379009,37.8888433 223.524,35.8925 C221.668991,33.8961567 220.670834,31.060685 220.5295,27.386 L234.5215,27.386 C234.910169,29.5766776 235.934825,31.0606628 237.5955,31.838 C239.256175,32.6153372 241.74715,33.004 245.0685,33.004 C248.354516,33.004 250.739493,32.6948364 252.2235,32.0765 C253.707507,31.4581636 254.4495,30.4953399 254.4495,29.188 C254.4495,28.0926612 254.025504,27.2888359 253.1775,26.7765 C252.329496,26.2641641 251.128174,25.937334 249.5735,25.796 L234.9985,24.365 C230.475811,23.9056644 227.092678,22.8280085 224.849,21.132 C222.605322,19.4359915 221.4835,16.7683515 221.4835,13.129 C221.4835,8.64164423 223.409147,5.48817576 227.2605,3.6685 C231.111853,1.84882424 236.765129,0.939 244.2205,0.939 C251.675871,0.939 257.355647,1.86649073 261.26,3.7215 C265.164353,5.57650927 267.204832,8.85364317 267.3815,13.553 L253.4425,13.553 C253.124498,11.892325 252.170508,10.7175034 250.5805,10.0285 Z M321.5095,2.158 L321.5095,40 L309.4255,40 L309.4255,25.372 L286.9005,25.372 L286.9005,40 L274.8165,40 L274.8165,2.158 L286.9005,2.158 L286.9005,16.044 L309.4255,16.044 L309.4255,2.158 L321.5095,2.158 Z M328.9975,40 L328.9975,2.158 L341.0815,2.158 L341.0815,40 L328.9975,40 Z M37.7445,87 L35.3595,85.039 C31.3314799,86.841009 26.8795244,87.742 22.0035,87.742 C15.1487991,87.742 9.92835127,86.8586755 6.342,85.092 C2.75564874,83.3253245 0.9625,80.4103536 0.9625,76.347 C0.9625,73.6969868 1.67799285,71.5946744 3.109,70.04 C4.54000716,68.4853256 6.77481814,67.2310048 9.8135,66.277 L11.7745,65.641 C9.93715748,64.0863256 8.6651702,62.7525056 7.9585,61.6395 C7.2518298,60.5264944 6.8985,59.139675 6.8985,57.479 C6.8985,54.4049846 8.32065245,52.1083409 11.165,50.589 C14.0093476,49.0696591 18.3288044,48.31 24.1235,48.31 C35.7482248,48.31 41.5605,51.3663028 41.5605,57.479 C41.5605,59.422343 40.9333396,61.0034939 39.679,62.2225 C38.4246604,63.4415061 36.6138452,64.4926622 34.2465,65.376 L29.0525,67.284 L35.6245,72.584 C36.5078378,70.7466575 36.9495,68.8740095 36.9495,66.966 L47.9735,66.966 C47.9735,71.5946898 46.5248478,75.640316 43.6275,79.103 L53.3795,87 L37.7445,87 Z M22.6925,62.143 L25.3955,61.295 C26.7028399,60.8709979 27.6833301,60.3940027 28.337,59.864 C28.9906699,59.3339974 29.3175,58.6980037 29.3175,57.956 C29.3175,57.0726622 28.9111707,56.3483362 28.0985,55.783 C27.2858293,55.2176638 25.9608425,54.935 24.1235,54.935 C22.3568245,54.935 21.076004,55.2176638 20.281,55.783 C19.485996,56.3483362 19.0885,57.0903287 19.0885,58.009 C19.0885,58.5036691 19.3181644,59.0071641 19.7775,59.5195 C20.2368356,60.0318359 21.0671607,60.7826617 22.2685,61.772 L22.6925,62.143 Z M28.3635,79.315 L18.5585,71.206 C17.1098261,71.7360026 15.9968372,72.4073293 15.2195,73.22 C14.4421628,74.0326707 14.0535,74.9689947 14.0535,76.029 C14.0535,77.3363399 14.7336599,78.4051625 16.094,79.2355 C17.4543401,80.0658375 19.4594867,80.481 22.1095,80.481 C24.4061782,80.481 26.490824,80.0923372 28.3635,79.315 Z M127.0795,87 L111.8685,87 L98.8305,69.987 L90.3505,76.824 L90.3505,87 L78.2665,87 L78.2665,49.158 L90.3505,49.158 L90.3505,64.528 L108.7415,49.158 L124.6415,49.158 L107.9465,62.62 L127.0795,87 Z M131.6525,87 L131.6525,49.158 L143.7365,49.158 L143.7365,87 L131.6525,87 Z M179.4735,74.386 L179.4735,87 L167.3895,87 L167.3895,74.439 L147.9385,49.158 L162.5665,49.158 L173.4315,64.369 L184.3495,49.158 L198.9245,49.158 L179.4735,74.386 Z M243.38,52.921 C247.885023,56.2423499 250.1375,61.2949661 250.1375,68.079 C250.1375,74.8630339 247.885023,79.9156501 243.38,83.237 C238.874977,86.5583499 232.364876,88.219 223.8495,88.219 C215.334124,88.219 208.832856,86.5583499 204.3455,83.237 C199.858144,79.9156501 197.6145,74.8630339 197.6145,68.079 C197.6145,61.2949661 199.858144,56.2423499 204.3455,52.921 C208.832856,49.5996501 215.334124,47.939 223.8495,47.939 C232.364876,47.939 238.874977,49.5996501 243.38,52.921 Z M233.6545,75.976 C235.809844,74.1386575 236.8875,71.5063505 236.8875,68.079 C236.8875,64.6516495 235.809844,62.0193425 233.6545,60.182 C231.499156,58.3446575 228.230855,57.426 223.8495,57.426 C219.503478,57.426 216.252844,58.3446575 214.0975,60.182 C211.942156,62.0193425 210.8645,64.6516495 210.8645,68.079 C210.8645,71.5063505 211.942156,74.1386575 214.0975,75.976 C216.252844,77.8133425 219.503478,78.732 223.8495,78.732 C228.230855,78.732 231.499156,77.8133425 233.6545,75.976 Z M305.2725,87 L290.0615,87 L277.0235,69.987 L268.5435,76.824 L268.5435,87 L256.4595,87 L256.4595,49.158 L268.5435,49.158 L268.5435,64.528 L286.9345,49.158 L302.8345,49.158 L286.1395,62.62 L305.2725,87 Z M349.94,52.921 C354.445023,56.2423499 356.6975,61.2949661 356.6975,68.079 C356.6975,74.8630339 354.445023,79.9156501 349.94,83.237 C345.434977,86.5583499 338.924876,88.219 330.4095,88.219 C321.894124,88.219 315.392856,86.5583499 310.9055,83.237 C306.418144,79.9156501 304.1745,74.8630339 304.1745,68.079 C304.1745,61.2949661 306.418144,56.2423499 310.9055,52.921 C315.392856,49.5996501 321.894124,47.939 330.4095,47.939 C338.924876,47.939 345.434977,49.5996501 349.94,52.921 Z M340.2145,75.976 C342.369844,74.1386575 343.4475,71.5063505 343.4475,68.079 C343.4475,64.6516495 342.369844,62.0193425 340.2145,60.182 C338.059156,58.3446575 334.790855,57.426 330.4095,57.426 C326.063478,57.426 322.812844,58.3446575 320.6575,60.182 C318.502156,62.0193425 317.4245,64.6516495 317.4245,68.079 C317.4245,71.5063505 318.502156,74.1386575 320.6575,75.976 C322.812844,77.8133425 326.063478,78.732 330.4095,78.732 C334.790855,78.732 338.059156,77.8133425 340.2145,75.976 Z M87.3835,220 L84.4395,220 L87.0615,206.499 L86.9695,206.499 L78.2525,220 L75.7225,220 L72.1115,206.292 L72.0195,206.292 L69.3745,220 L66.5455,220 L69.7195,203.578 L74.3195,203.578 L77.5395,216.021 L77.6315,216.021 L85.5435,203.578 L90.5575,203.578 L87.3835,220 Z M113.2875,203.578 L111.4015,213.307 C111.094832,214.825008 110.646336,216.028662 110.056,216.918 C109.465664,217.807338 108.656838,218.527997 107.6295,219.08 C105.912158,219.969338 103.842179,220.414 101.4195,220.414 C99.1348219,220.414 97.2833404,219.961671 95.865,219.057 C94.4466596,218.152329 93.7375,216.803009 93.7375,215.009 C93.7375,214.564331 93.7834995,214.104336 93.8755,213.629 L95.8075,203.578 L98.7515,203.578 L96.7965,213.606 C96.7351664,213.912668 96.7045,214.234665 96.7045,214.572 C96.7045,215.706672 97.1491622,216.549997 98.0385,217.102 C98.9278378,217.654003 100.169825,217.93 101.7645,217.93 C102.515837,217.93 103.25183,217.838001 103.9725,217.654 C104.69317,217.469999 105.34483,217.224668 105.9275,216.918 C107.27684,216.181996 108.127832,214.924676 108.4805,213.146 L110.3435,203.578 L113.2875,203.578 Z M118.4225,214.457 C118.391833,214.763668 118.3765,214.985999 118.3765,215.124 C118.3765,216.197339 118.813496,216.948665 119.6875,217.378 C120.561504,217.807335 121.826492,218.022 123.4825,218.022 C125.583177,218.022 127.216161,217.654004 128.3815,216.918 C128.734168,216.687999 129.017832,216.396668 129.2325,216.044 C129.447168,215.691332 129.5545,215.308002 129.5545,214.894 C129.5545,214.280664 129.359002,213.843668 128.968,213.583 C128.576998,213.322332 128.005837,213.153667 127.2545,213.077 L121.2975,212.456 C119.90216,212.302666 118.83267,211.961503 118.089,211.4325 C117.34533,210.903497 116.9735,210.102339 116.9735,209.029 C116.9735,208.338997 117.111499,207.664337 117.3875,207.005 C117.663501,206.345663 118.062164,205.778336 118.5835,205.303 C120.070841,203.876993 122.539483,203.164 125.9895,203.164 C128.366179,203.164 130.236827,203.516663 131.6015,204.222 C132.966173,204.927337 133.6485,206.061992 133.6485,207.626 C133.6485,207.932668 133.6255,208.246998 133.5795,208.569 L130.3595,208.569 C130.390167,208.323665 130.4055,208.147334 130.4055,208.04 C130.4055,207.119995 129.987671,206.476002 129.152,206.108 C128.316329,205.739998 127.131841,205.556 125.5985,205.556 C123.375156,205.556 121.841838,205.969996 120.9985,206.798 C120.799166,206.997334 120.634334,207.234999 120.504,207.511 C120.373666,207.787001 120.3085,208.070665 120.3085,208.362 C120.3085,208.852669 120.503998,209.209166 120.895,209.4315 C121.286002,209.653834 121.887829,209.803333 122.7005,209.88 L128.6575,210.455 C130.037507,210.593001 131.106996,210.941831 131.866,211.5015 C132.625004,212.061169 133.0045,212.938994 133.0045,214.135 C133.0045,214.932337 132.828168,215.721996 132.4755,216.504 C132.122832,217.286004 131.624503,217.937664 130.9805,218.459 C130.137162,219.13367 129.060007,219.628165 127.749,219.9425 C126.437993,220.256835 124.893176,220.414 123.1145,220.414 C120.569154,220.414 118.602674,220.04217 117.215,219.2985 C115.827326,218.55483 115.1335,217.324342 115.1335,215.607 C115.1335,215.208331 115.164166,214.825002 115.2255,214.457 L118.4225,214.457 Z M136.3685,220 L139.5425,203.578 L142.4865,203.578 L139.3125,220 L136.3685,220 Z M162.2955,217.148 C161.375495,218.206005 160.175674,219.014831 158.696,219.5745 C157.216326,220.134169 155.518176,220.414 153.6015,220.414 C151.071487,220.414 149.047508,219.842839 147.5295,218.7005 C146.011492,217.558161 145.2525,215.898344 145.2525,213.721 C145.2525,211.374988 145.973159,209.243676 147.4145,207.327 C148.441838,205.962327 149.760492,204.927337 151.3705,204.222 C152.980508,203.516663 154.759157,203.164 156.7065,203.164 C158.423842,203.164 159.891994,203.397831 161.111,203.8655 C162.330006,204.333169 163.25383,204.988662 163.8825,205.832 C164.51117,206.675338 164.8255,207.656661 164.8255,208.776 C164.8255,208.929334 164.810167,209.189998 164.7795,209.558 L161.3985,209.558 L161.4215,209.121 C161.4215,208.093662 160.996004,207.26567 160.145,206.637 C159.293996,206.00833 158.017509,205.694 156.3155,205.694 C154.981493,205.694 153.774005,205.962331 152.693,206.499 C151.611995,207.035669 150.703504,207.817662 149.9675,208.845 C149.522831,209.47367 149.177835,210.178996 148.9325,210.961 C148.687165,211.743004 148.5645,212.532663 148.5645,213.33 C148.5645,214.832674 149.047495,215.96733 150.0135,216.734 C150.979505,217.500671 152.290492,217.884 153.9465,217.884 C155.311173,217.884 156.472662,217.669335 157.431,217.24 C158.389338,216.810665 159.144497,216.205004 159.6965,215.423 C160.110502,214.855664 160.394166,214.273003 160.5475,213.675 L164.1125,213.675 C163.836499,214.901673 163.230838,216.059328 162.2955,217.148 Z M169.4775,208.546 L172.9275,208.546 L172.3065,211.743 L168.8795,211.743 L169.4775,208.546 Z M167.8675,216.826 L171.3175,216.826 L170.6965,220 L167.2695,220 L167.8675,216.826 Z M191.2245,209.857 L203.2305,209.857 L203.2305,213.33 L191.2245,213.33 L191.2245,216.228 L203.9895,216.228 L203.9895,220 L185.9805,220 L185.9805,203.578 L203.7365,203.578 L203.7365,207.327 L191.2245,207.327 L191.2245,209.857 Z M232.1705,220 L226.9265,220 L226.9265,208.385 L226.7885,208.385 L221.8895,220 L217.7955,220 L212.7815,208.224 L212.6435,208.224 L212.6435,220 L207.6525,220 L207.6525,203.578 L215.8865,203.578 L219.7965,213.399 L219.9345,213.399 L223.7755,203.578 L232.1705,203.578 L232.1705,220 Z M236.1785,220 L236.1785,203.578 L241.4225,203.578 L241.4225,220 L236.1785,220 Z M265.6935,203.578 L265.6935,220 L259.6445,220 L250.5595,209.627 L250.4215,209.627 L250.4215,220 L245.4305,220 L245.4305,203.578 L251.5945,203.578 L260.5415,213.79 L260.6795,213.79 L260.6795,203.578 L265.6935,203.578 Z M284.7665,217.401 L275.4515,217.401 L274.2095,220 L268.4135,220 L276.7165,203.578 L283.5935,203.578 L291.8275,220 L286.0315,220 L284.7665,217.401 Z M282.9495,213.606 L280.1665,207.902 L280.0285,207.902 L277.2915,213.606 L282.9495,213.606 Z M53.967,245.55 L54.082,245.55 L62.822,232.578 L66.226,232.578 L54.91,249 L51.989,249 L46.883,232.578 L50.057,232.578 L53.967,245.55 Z M66.646,249 L69.82,232.578 L72.764,232.578 L69.59,249 L66.646,249 Z M77.899,243.457 C77.8683332,243.763668 77.853,243.985999 77.853,244.124 C77.853,245.197339 78.2899956,245.948665 79.164,246.378 C80.0380044,246.807335 81.3029917,247.022 82.959,247.022 C85.0596772,247.022 86.6926608,246.654004 87.858,245.918 C88.2106684,245.687999 88.4943323,245.396668 88.709,245.044 C88.9236677,244.691332 89.031,244.308002 89.031,243.894 C89.031,243.280664 88.835502,242.843668 88.4445,242.583 C88.053498,242.322332 87.4823371,242.153667 86.731,242.077 L80.774,241.456 C79.3786597,241.302666 78.3091704,240.961503 77.5655,240.4325 C76.8218296,239.903497 76.45,239.102339 76.45,238.029 C76.45,237.338997 76.5879986,236.664337 76.864,236.005 C77.1400014,235.345663 77.5386641,234.778336 78.06,234.303 C79.5473408,232.876993 82.0159827,232.164 85.466,232.164 C87.8426785,232.164 89.7133265,232.516663 91.078,233.222 C92.4426735,233.927337 93.125,235.061992 93.125,236.626 C93.125,236.932668 93.1020002,237.246998 93.056,237.569 L89.836,237.569 C89.8666668,237.323665 89.882,237.147334 89.882,237.04 C89.882,236.119995 89.4641708,235.476002 88.6285,235.108 C87.7928292,234.739998 86.608341,234.556 85.075,234.556 C82.8516556,234.556 81.3183376,234.969996 80.475,235.798 C80.2756657,235.997334 80.110834,236.234999 79.9805,236.511 C79.850166,236.787001 79.785,237.070665 79.785,237.362 C79.785,237.852669 79.980498,238.209166 80.3715,238.4315 C80.762502,238.653834 81.3643293,238.803333 82.177,238.88 L88.134,239.455 C89.5140069,239.593001 90.5834962,239.941831 91.3425,240.5015 C92.1015038,241.061169 92.481,241.938994 92.481,243.135 C92.481,243.932337 92.3046684,244.721996 91.952,245.504 C91.5993316,246.286004 91.1010032,246.937664 90.457,247.459 C89.6136624,248.13367 88.5365066,248.628165 87.2255,248.9425 C85.9144934,249.256835 84.3696756,249.414 82.591,249.414 C80.0456539,249.414 78.0791736,249.04217 76.6915,248.2985 C75.3038264,247.55483 74.61,246.324342 74.61,244.607 C74.61,244.208331 74.6406664,243.825002 74.702,243.457 L77.899,243.457 Z M116.315,232.578 L114.429,242.307 C114.122332,243.825008 113.673836,245.028662 113.0835,245.918 C112.493164,246.807338 111.684338,247.527997 110.657,248.08 C108.939658,248.969338 106.869679,249.414 104.447,249.414 C102.162322,249.414 100.31084,248.961671 98.8925,248.057 C97.4741596,247.152329 96.765,245.803009 96.765,244.009 C96.765,243.564331 96.8109995,243.104336 96.903,242.629 L98.835,232.578 L101.779,232.578 L99.824,242.606 C99.7626664,242.912668 99.732,243.234665 99.732,243.572 C99.732,244.706672 100.176662,245.549997 101.066,246.102 C101.955338,246.654003 103.197325,246.93 104.792,246.93 C105.543337,246.93 106.27933,246.838001 107,246.654 C107.72067,246.469999 108.37233,246.224668 108.955,245.918 C110.30434,245.181996 111.155332,243.924676 111.508,242.146 L113.371,232.578 L116.315,232.578 Z M131.731,245.343 L121.634,245.343 L119.127,249 L115.677,249 L127.223,232.578 L130.673,232.578 L135.963,249 L132.881,249 L131.731,245.343 Z M130.949,242.859 L128.58,235.384 L128.488,235.384 L123.336,242.859 L130.949,242.859 Z M139.649,249 L142.823,232.578 L145.767,232.578 L143.076,246.447 L155.864,246.447 L155.358,249 L139.649,249 Z M162.011,237.546 L165.461,237.546 L164.84,240.743 L161.413,240.743 L162.011,237.546 Z M160.401,245.826 L163.851,245.826 L163.23,249 L159.803,249 L160.401,245.826 Z M191.141,238.006 L191.141,232.348 L196.293,232.348 L196.293,249 L191.233,249 L191.233,247.597 L191.095,247.597 C190.435663,248.22567 189.676671,248.700998 188.818,249.023 C187.959329,249.345002 186.924339,249.506 185.713,249.506 C183.213654,249.506 181.293173,248.938672 179.9515,247.804 C178.609827,246.669328 177.939,245.028677 177.939,242.882 C177.939,240.735323 178.609827,239.094672 179.9515,237.96 C181.293173,236.825328 183.213654,236.258 185.713,236.258 C186.909006,236.258 187.924829,236.407499 188.7605,236.7065 C189.596171,237.005501 190.343663,237.438664 191.003,238.006 L191.141,238.006 Z M190.2785,245.136 C190.960837,244.599331 191.302,243.848005 191.302,242.882 C191.302,241.915995 190.960837,241.164669 190.2785,240.628 C189.596163,240.091331 188.58034,239.823 187.231,239.823 C185.866327,239.823 184.873503,240.083664 184.2525,240.605 C183.631497,241.126336 183.321,241.885328 183.321,242.882 C183.321,243.878672 183.631497,244.637664 184.2525,245.159 C184.873503,245.680336 185.866327,245.941 187.231,245.941 C188.58034,245.941 189.596163,245.672669 190.2785,245.136 Z M217.758,234.51 C219.536676,235.920674 220.426,238.067319 220.426,240.95 C220.426,243.832681 219.536676,245.979326 217.758,247.39 C215.979324,248.800674 213.395684,249.506 210.007,249.506 C206.63365,249.506 204.057676,248.800674 202.279,247.39 C200.500324,245.979326 199.611,243.832681 199.611,240.95 C199.611,238.067319 200.500324,235.920674 202.279,234.51 C204.057676,233.099326 206.63365,232.394 210.007,232.394 C213.395684,232.394 215.979324,233.099326 217.758,234.51 Z M213.6525,244.4345 C214.457504,243.629496 214.86,242.468008 214.86,240.95 C214.86,239.431992 214.457504,238.270504 213.6525,237.4655 C212.847496,236.660496 211.632341,236.258 210.007,236.258 C208.396992,236.258 207.189504,236.660496 206.3845,237.4655 C205.579496,238.270504 205.177,239.431992 205.177,240.95 C205.177,242.468008 205.579496,243.629496 206.3845,244.4345 C207.189504,245.239504 208.396992,245.642 210.007,245.642 C211.632341,245.642 212.847496,245.239504 213.6525,244.4345 Z M228.827,238.144 L228.965,238.144 C229.716337,237.499997 230.578828,237.024668 231.5525,236.718 C232.526172,236.411332 233.64166,236.258 234.899,236.258 C236.800343,236.258 238.310661,236.656663 239.43,237.454 C240.549339,238.251337 241.109,239.447325 241.109,241.042 L241.109,249 L235.957,249 L235.957,242.675 C235.957,241.034325 234.891344,240.214 232.76,240.214 C231.701995,240.214 230.797337,240.463164 230.046,240.9615 C229.294663,241.459836 228.919,242.268661 228.919,243.388 L228.919,249 L223.767,249 L223.767,236.58 L228.827,236.58 L228.827,238.144 Z M244.864,244.193 L250.499,244.193 L250.499,249 L244.864,249 L244.864,244.193 Z M272.746,249 L266.053,249 L263.04,245.55 L259.981,249 L253.288,249 L259.59,242.537 L253.886,236.58 L260.28,236.58 L263.04,239.777 L265.731,236.58 L272.125,236.58 L266.444,242.537 L272.746,249 Z M286.414,249.23 C285.754663,250.426006 285.118336,251.322997 284.505,251.921 C283.891664,252.519003 283.174837,252.932999 282.3545,253.163 C281.534163,253.393001 280.434007,253.508 279.054,253.508 C277.551326,253.508 276.501003,253.500333 275.903,253.485 L275.903,249.437 C276.363002,249.452333 277.129661,249.46 278.203,249.46 C278.862337,249.46 279.360665,249.410167 279.698,249.3105 C280.035335,249.210833 280.280666,249.030668 280.434,248.77 L280.71,248.287 L274.155,236.58 L280.066,236.58 L283.677,243.94 L283.815,243.94 L287.449,236.58 L293.337,236.58 L286.414,249.23 Z M295.344,249 L295.344,245.435 L303.624,240.03 L295.827,240.03 L295.827,236.58 L312.134,236.58 L312.134,240.099 L303.808,245.527 L312.134,245.527 L312.134,249 L295.344,249 Z" id="TAKASHI-&amp;-KIYOKO-MUS" fill="#FFFFFF"></path>
            <g id="Gridwalk-Logo-2019---Symbol---Black" transform="translate(147.000000, 125.000000)" fill="#3AEAD2">
                <path d="M29.0159703,0.537776277 C26.094109,1.82824092 3.20117523,13.5924768 2.38787364,14.0426388 C1.60469432,14.4928009 -2.13046855,16.5335357 1.69506117,18.6342921 C5.40010176,20.7350485 25.1904406,30.548582 27.1483888,31.5389386 C29.1063371,32.559306 31.7872201,34.1798895 36.3658069,31.6589818 C40.9745159,29.1380741 51.1257247,24.1562804 51.1257247,24.1562804 C51.1257247,24.1562804 55.3428441,22.355632 51.1257247,20.3148972 C46.8483608,18.2141408 43.1131979,16.2934493 39.1370568,14.3127361 C35.2211602,12.3020121 31.7269756,13.9526064 31.7269756,13.9526064 L28.2026687,15.7532548 C25.9133753,16.953687 26.9977774,18.3041733 29.4075599,19.5346163 C31.8173424,20.7350485 33.6246793,21.7254051 33.6246793,21.7254051 C33.6246793,21.7254051 35.6127499,22.7157617 34.8295706,23.7661399 C34.6187146,24.1262696 34.2873695,24.3063344 33.9259021,24.366356 C32.8113777,24.5764316 31.5161196,23.8561723 31.5161196,23.8561723 C31.5161196,23.8561723 24.166283,20.1348324 21.5155222,18.6342921 C19.6178185,17.5238923 19.4672071,16.5335357 22.1179679,15.1530387 C25.4314188,13.4424227 27.9014459,12.1519581 30.3714729,10.771461 C32.8415,9.36095315 34.8898151,9.39096396 38.414122,11.1916123 C41.9384289,12.9922606 43.1734425,13.4724335 43.1734425,13.4724335 C43.1734425,13.4724335 45.4326136,14.7328874 48.2942303,13.3523903 C50.5835237,12.1519581 50.7040128,12.1519581 50.7040128,12.1519581 C50.7040128,12.1519581 54.6199093,10.7414502 49.4991215,8.16052093 L34.8898151,0.627808694 C34.8898151,0.627808694 32.0281984,-0.722677563 29.0762148,0.537776277 L29.0159703,0.537776277 Z" id="Shape"></path>
                <path d="M50.6434401,14.1105873 C50.6434401,14.1105873 47.5813414,15.1236692 49.8166734,16.2493158 C52.0213844,17.3749623 52.7869091,17.7970798 53.9198856,18.2754796 C55.0528621,18.7820205 56.5532904,19.5418319 58.9111064,18.4161854 L62.5856247,16.6714332 C63.9329481,16.0241864 64.9434406,15.5457867 62.5856247,14.4201401 C60.2278088,13.2944935 58.5130335,12.5628233 58.5130335,12.5628233 C58.5130335,12.5628233 56.5839114,11.2964709 53.9198856,12.5628233 L50.6434401,14.0824461 L50.6434401,14.1105873 Z" id="Shape"></path>
            </g>
        </g>
    </g>
</svg>